# Blender v2.78 (sub 0) OBJ File: 'plane25a.blend'
# www.blender.org
mtllib plane25a.mtl
o Plane.001
v -0.511446 1.780591 0.730425
v -0.511446 -0.002773 0.730425
v 0.511446 1.780591 -0.730425
v 0.511446 -0.002773 -0.730425
v 0.511446 1.780591 -0.730425
v -0.511446 1.780591 0.730425
v -0.511446 -0.002773 0.730425
v 0.511446 -0.002773 -0.730425
v 0.419644 1.620539 -0.599317
v -0.419644 1.620539 0.599317
v -0.419644 0.157279 0.599317
v 0.419644 0.157279 -0.599317
vn -0.8192 -0.0000 -0.5736
vn 0.8192 0.0000 0.5736
vn 0.0000 0.0000 1.0000
usemtl None
s off
f 1//1 3//1 4//1 2//1
f 6//2 7//2 11//2 10//2
f 4//3 3//3 5//3 8//3
f 1//3 2//3 7//3 6//3
f 2//3 4//3 8//3 7//3
f 3//3 1//3 6//3 5//3
f 10//2 11//2 12//2 9//2
f 7//2 8//2 12//2 11//2
f 5//2 6//2 10//2 9//2
f 8//2 5//2 9//2 12//2
o Plane
v -1.000000 0.000094 1.000000
v 1.000000 0.000094 1.000000
v -1.000000 0.000094 -1.000000
v 1.000000 0.000094 -1.000000
v -0.765215 0.159843 -0.765215
v -0.765215 0.159843 0.765215
v 0.765215 0.159843 0.765215
v 0.765215 0.159843 -0.765215
vn 0.0000 -1.0000 0.0000
vn 0.0000 1.0000 0.0000
vn 0.0000 0.8268 -0.5625
vn 0.0000 0.8268 0.5625
vn 0.5625 0.8268 0.0000
vn -0.5625 0.8268 0.0000
usemtl None
s off
f 13//4 15//4 16//4 14//4
f 18//5 19//5 20//5 17//5
f 16//6 15//6 17//6 20//6
f 13//7 14//7 19//7 18//7
f 14//8 16//8 20//8 19//8
f 15//9 13//9 18//9 17//9
